<svg width="108" height="35" viewBox="0 0 108 35" fill="none" xmlns="http://www.w3.org/2000/svg">
<mask id="mask0" mask-type="alpha" maskUnits="userSpaceOnUse" x="0" y="0" width="35" height="35">
<path d="M17.5 35C27.165 35 35 27.165 35 17.5C35 7.83502 27.165 0 17.5 0C7.83502 0 0 7.83502 0 17.5C0 27.165 7.83502 35 17.5 35Z" fill="#C4C4C4"/>
</mask>
<g mask="url(#mask0)">
<path fill-rule="evenodd" clip-rule="evenodd" d="M10.7208 -26.6613C10.5295 -26.9638 10.1291 -27.0539 9.82659 -26.8626C9.52405 -26.6712 9.43395 -26.2708 9.62534 -25.9683C9.6764 -25.8875 9.72705 -25.8078 9.77711 -25.7289L9.77743 -25.7284C10.3031 -24.9004 10.7691 -24.1664 11.0942 -23.314C11.4961 -22.2601 11.6981 -21.2062 11.9151 -20.0739C11.9913 -19.6764 12.0694 -19.2692 12.1586 -18.8488C12.5318 -17.0907 12.9175 -15.3418 13.3024 -13.5962C14.1207 -9.88491 14.9358 -6.18865 15.6207 -2.45051C15.622 -2.44359 15.6232 -2.43667 15.6244 -2.42975C10.3006 -1.73735 5.6583 1.11576 2.61243 5.21763C-0.166914 4.08871 -2.50115 3.42025 -4.16304 3.12135L-4.39251 4.39717C-2.86887 4.67121 -0.717853 5.28174 1.8576 6.31086C-0.0570273 9.29901 -1.16666 12.8491 -1.16666 16.6574C-1.16666 18.3424 -0.949431 19.9769 -0.541358 21.5345C-2.29864 22.2273 -4.03098 22.9973 -5.70392 23.9084C-6.01834 24.0796 -6.13437 24.4732 -5.96319 24.7876C-5.79195 25.102 -5.39836 25.218 -5.08398 25.0468C-3.4947 24.1813 -1.84974 23.4467 -0.16889 22.781C0.805532 25.6774 2.45222 28.2665 4.58645 30.3641C3.76362 31.2161 3.02598 31.966 2.39399 32.5968L3.30972 33.5143C3.95184 32.8734 4.70271 32.1099 5.54105 31.2417C8.38469 33.6855 11.9508 35.3173 15.8768 35.7757C15.5737 36.8093 15.2484 37.8425 14.9202 38.882C14.8124 39.2233 15.0018 39.5874 15.3431 39.6952C15.6845 39.803 16.0486 39.6136 16.1563 39.2723C16.5098 38.1529 16.8652 37.0248 17.1954 35.8844C17.511 35.8997 17.8287 35.9074 18.1482 35.9074C28.8154 35.9074 37.463 27.2889 37.463 16.6574C37.463 14.7909 37.1964 12.9864 36.6992 11.2796C37.1639 11.1972 37.6297 11.1162 38.0967 11.0351C38.885 10.898 39.6763 10.7605 40.4695 10.6142L52.92 8.3179C53.2721 8.25299 53.5049 7.91497 53.4397 7.56296C53.375 7.21089 53.0372 6.97819 52.6849 7.0431L40.2344 9.33942C39.471 9.48022 38.6985 9.61449 37.9212 9.7495L37.9207 9.74961C37.3789 9.84374 36.8348 9.93829 36.2899 10.0357C33.5811 2.66636 26.4809 -2.59259 18.1482 -2.59259C17.7354 -2.59259 17.3257 -2.57969 16.9194 -2.55426C16.9115 -2.59755 16.9037 -2.64083 16.8957 -2.68411C16.2067 -6.4451 15.3831 -10.1803 14.562 -13.904C14.1784 -15.644 13.7952 -17.3815 13.4267 -19.118C13.3494 -19.4818 13.2782 -19.8539 13.206 -20.2311L13.206 -20.2313C12.9835 -21.394 12.7515 -22.606 12.3054 -23.7759C11.931 -24.7575 11.3943 -25.6017 10.879 -26.4121C10.826 -26.4955 10.7732 -26.5785 10.7208 -26.6613ZM16.2582 1.54094C12.2991 2.02637 8.81233 4.01714 6.38778 6.91742C9.93074 8.66498 13.9237 11.0574 18.033 14.2281C17.8811 11.5526 17.5073 8.87503 17.0111 6.23752C16.737 4.78078 16.5201 3.31918 16.3068 1.8708L16.287 1.73624C16.2774 1.67114 16.2678 1.60599 16.2582 1.54094ZM19.3095 13.8578C19.1435 11.2103 18.7701 8.57605 18.285 5.99782C18.0164 4.5701 17.8029 3.13302 17.5892 1.68194L17.5682 1.53915C17.5632 1.50518 17.5582 1.47121 17.5532 1.43723C17.7506 1.42972 17.9489 1.42593 18.1482 1.42593C21.3753 1.42593 24.366 2.4199 26.8311 4.1157C24.5202 7.35221 21.9366 10.6636 19.3095 13.8578ZM18.1039 17.3266C14.6298 21.4349 11.1931 25.2452 8.31289 28.3236C10.6678 30.2947 13.629 31.5722 16.8813 31.8374C17.005 31.239 17.1134 30.6376 17.203 30.0319C17.7804 26.1299 17.957 22.0916 18.0862 18.1109C18.0947 17.8497 18.1006 17.5882 18.1039 17.3266ZM18.1936 31.8888C18.3044 31.3369 18.4026 30.7813 18.4854 30.2216C19.0748 26.2388 19.2526 22.1345 19.3818 18.153C19.3944 17.7651 19.4015 17.3771 19.4032 16.9889C22.7416 19.7721 26.1224 23.0898 29.3622 27.0163C26.5803 30.0018 22.6099 31.876 18.1936 31.8888ZM33.4444 16.6574C33.4444 15.0587 33.1968 13.5168 32.7375 12.0679C32.2768 12.1745 31.8179 12.2877 31.3611 12.4093C29.7491 12.8384 28.1798 13.3831 26.5862 13.9363L26.586 13.9364C25.9896 14.1434 25.3899 14.3515 24.7831 14.5553C23.2809 15.0599 21.7731 15.5443 20.2643 16.0192C23.6036 18.8062 26.9796 22.1152 30.2171 26.0161C32.2402 23.4321 33.4444 20.1828 33.4444 16.6574ZM31.0276 11.1567C31.446 11.0453 31.8668 10.9406 32.2893 10.8415C31.3225 8.51332 29.7925 6.47456 27.8674 4.89509C25.5545 8.13277 22.9738 11.4413 20.3505 14.6327C21.6943 14.2078 23.0347 13.775 24.3705 13.3265C24.9496 13.132 25.5326 12.9296 26.1195 12.7258C27.7282 12.1674 29.3655 11.5991 31.0276 11.1567ZM5.58459 7.96721C9.19569 9.72946 13.3168 12.1899 17.563 15.5042C17.066 15.6582 16.5687 15.812 16.0711 15.9659L15.6258 16.1036C12.7005 17.0083 9.76703 17.9199 6.85556 18.9154C6.39823 19.0718 5.93931 19.2274 5.47948 19.3833L5.47842 19.3836C4.73873 19.6344 3.9966 19.886 3.25454 20.1431C2.99113 19.0233 2.85186 17.8563 2.85186 16.6574C2.85186 13.4296 3.86133 10.4333 5.58459 7.96721ZM16.5266 17.1819C13.2659 21.0113 10.0627 24.5563 7.35474 27.4503C5.6636 25.7728 4.36484 23.7042 3.60618 21.3936C4.36654 21.1298 5.13105 20.8704 5.898 20.6103C6.35623 20.4549 6.81537 20.2991 7.27498 20.142C10.1659 19.1535 13.0821 18.2472 16.0089 17.342L16.5266 17.1819Z" fill="url(#paint0_linear)"/>
</g>
<path d="M49.135 14.63L52.105 23H55.27L58.24 14.63H55.51L53.695 20.6L51.88 14.63H49.135ZM63.0096 16.565C63.8646 16.565 64.5846 17.09 64.5846 18.005H61.3746C61.5246 17.075 62.1696 16.565 63.0096 16.565ZM67.0146 20.225H64.2846C64.0746 20.675 63.6696 21.035 62.9496 21.035C62.1246 21.035 61.4496 20.525 61.3596 19.43H67.1646C67.1946 19.175 67.2096 18.92 67.2096 18.68C67.2096 16.13 65.4846 14.51 63.0396 14.51C60.5496 14.51 58.8096 16.16 58.8096 18.815C58.8096 21.47 60.5796 23.12 63.0396 23.12C65.1246 23.12 66.6096 21.86 67.0146 20.225ZM68.5628 23H71.1278V11.9H68.5628V23ZM81.1766 18.815C81.1766 16.16 79.2866 14.51 76.8266 14.51C74.3816 14.51 72.4766 16.16 72.4766 18.815C72.4766 21.47 74.3366 23.12 76.7966 23.12C79.2566 23.12 81.1766 21.47 81.1766 18.815ZM75.0866 18.815C75.0866 17.39 75.8966 16.73 76.8266 16.73C77.7266 16.73 78.5666 17.39 78.5666 18.815C78.5666 20.225 77.7116 20.9 76.7966 20.9C75.8666 20.9 75.0866 20.225 75.0866 18.815ZM94.0724 23H96.6224V18.11C96.6224 15.86 95.2874 14.54 93.2174 14.54C92.0024 14.54 90.9524 15.215 90.3974 16.1C89.8274 15.095 88.8074 14.54 87.5474 14.54C86.4524 14.54 85.5974 15.005 85.1024 15.68V14.63H82.5374V23H85.1024V18.455C85.1024 17.36 85.7324 16.76 86.7074 16.76C87.6824 16.76 88.3124 17.36 88.3124 18.455V23H90.8624V18.455C90.8624 17.36 91.4924 16.76 92.4674 16.76C93.4424 16.76 94.0724 17.36 94.0724 18.455V23ZM106.606 18.815C106.606 16.16 104.716 14.51 102.256 14.51C99.8113 14.51 97.9063 16.16 97.9063 18.815C97.9063 21.47 99.7663 23.12 102.226 23.12C104.686 23.12 106.606 21.47 106.606 18.815ZM100.516 18.815C100.516 17.39 101.326 16.73 102.256 16.73C103.156 16.73 103.996 17.39 103.996 18.815C103.996 20.225 103.141 20.9 102.226 20.9C101.296 20.9 100.516 20.225 100.516 18.815Z" fill="black"/>
<defs>
<linearGradient id="paint0_linear" x1="23.7042" y1="-26.9631" x2="23.7042" y2="39.7255" gradientUnits="userSpaceOnUse">
<stop stop-color="#FFE920"/>
<stop offset="1" stop-color="#EB874E"/>
</linearGradient>
</defs>
</svg>
