<svg width="50" height="50" viewBox="0 0 50 50" fill="none" xmlns="http://www.w3.org/2000/svg">
<mask id="mask0" mask-type="alpha" maskUnits="userSpaceOnUse" x="0" y="0" width="50" height="50">
<path d="M25 50C38.8071 50 50 38.8071 50 25C50 11.1929 38.8071 0 25 0C11.1929 0 0 11.1929 0 25C0 38.8071 11.1929 50 25 50Z" fill="#C4C4C4"/>
</mask>
<g mask="url(#mask0)">
<path fill-rule="evenodd" clip-rule="evenodd" d="M15.3155 -38.0876C15.0421 -38.5197 14.4702 -38.6485 14.038 -38.3751C13.6058 -38.1017 13.4771 -37.5298 13.7505 -37.0976C13.8235 -36.9822 13.8958 -36.8683 13.9674 -36.7556L13.9678 -36.7548C14.7187 -35.572 15.3845 -34.5234 15.8489 -33.3058C16.4231 -31.8001 16.7117 -30.2946 17.0217 -28.677C17.1305 -28.1092 17.242 -27.5273 17.3695 -26.9269C17.9026 -24.4153 18.4536 -21.9168 19.0034 -19.4231C20.1725 -14.1213 21.3369 -8.84091 22.3153 -3.50071C22.3171 -3.49083 22.3189 -3.48095 22.3207 -3.47106C14.7152 -2.48191 8.08334 1.59396 3.73209 7.45377C-0.238396 5.84102 -3.57301 4.88609 -5.94715 4.45908L-6.27496 6.28169C-4.09834 6.67317 -1.02545 7.54536 2.65376 9.01553C-0.0814152 13.2843 -1.66661 18.3558 -1.66661 23.7963C-1.66661 26.2035 -1.35628 28.5385 -0.773316 30.7636C-3.28373 31.7533 -5.75849 32.8533 -8.14841 34.1548C-8.59757 34.3995 -8.76333 34.9617 -8.51879 35.4109C-8.27416 35.86 -7.71189 36.0258 -7.26277 35.7812C-4.99238 34.5448 -2.64244 33.4953 -0.24122 32.5442C1.15081 36.682 3.50323 40.3807 6.55212 43.3773C5.37665 44.5945 4.32288 45.6658 3.42003 46.5669L4.72823 47.8776C5.64554 46.962 6.71821 45.8714 7.91584 44.631C11.9782 48.1222 17.0726 50.4533 22.6811 51.1082C22.2482 52.5848 21.7835 54.0607 21.3146 55.5457C21.1607 56.0333 21.4311 56.5535 21.9188 56.7074C22.4064 56.8614 22.9266 56.5909 23.0805 56.1033C23.5855 54.5041 24.0933 52.8926 24.5648 51.2634C25.0158 51.2853 25.4696 51.2963 25.926 51.2963C41.1649 51.2963 53.5186 38.9842 53.5186 23.7963C53.5186 21.1298 53.1378 18.552 52.4274 16.1138C53.0913 15.996 53.7568 15.8803 54.4239 15.7644C55.55 15.5686 56.6805 15.3722 57.8136 15.1632L75.6001 11.8827C76.103 11.79 76.4356 11.3071 76.3424 10.8042C76.25 10.3013 75.7674 9.96886 75.2642 10.0616L57.4778 13.342C56.3872 13.5432 55.2836 13.735 54.1732 13.9279L54.1724 13.928C53.3985 14.0625 52.6212 14.1976 51.8427 14.3367C47.9731 3.8091 37.8298 -3.70368 25.926 -3.70368C25.3364 -3.70368 24.7511 -3.68525 24.1706 -3.64893C24.1594 -3.71077 24.1482 -3.77261 24.1368 -3.83443C23.1524 -9.20727 21.9759 -14.5433 20.803 -19.8628C20.2548 -22.3486 19.7075 -24.8308 19.181 -27.3114C19.0707 -27.8311 18.9689 -28.3626 18.8658 -28.9016L18.8658 -28.9019C18.5479 -30.5629 18.2165 -32.2943 17.5792 -33.9656C17.0444 -35.3679 16.2777 -36.5738 15.5415 -37.7316C15.4658 -37.8507 15.3903 -37.9693 15.3155 -38.0876ZM23.2261 2.20136C17.5702 2.89482 12.5891 5.73879 9.12546 9.88205C14.1868 12.3786 19.8911 15.7963 25.7615 20.3259C25.5445 16.5038 25.0105 12.6786 24.3016 8.91076C23.9101 6.8297 23.6002 4.74171 23.2955 2.67259L23.2671 2.48037C23.2534 2.38737 23.2398 2.29428 23.2261 2.20136ZM27.585 19.7969C27.3479 16.0148 26.8145 12.2515 26.1215 8.56833C25.7378 6.52874 25.4328 4.47577 25.1275 2.40279L25.0975 2.1988C25.0904 2.15027 25.0832 2.10174 25.0761 2.0532C25.358 2.04247 25.6414 2.03706 25.926 2.03706C30.5361 2.03706 34.8086 3.45702 38.3302 5.87959C35.0289 10.5032 31.338 15.2338 27.585 19.7969ZM25.8628 24.7523C20.8998 30.6214 15.9902 36.0646 11.8756 40.4623C15.2397 43.2781 19.4701 45.1031 24.1161 45.482C24.2929 44.6271 24.4478 43.768 24.5758 42.9027C25.4007 37.3284 25.6529 31.5595 25.8375 25.8727C25.8496 25.4995 25.858 25.1261 25.8628 24.7523ZM25.9909 45.5555C26.1492 44.767 26.2895 43.9733 26.4078 43.1738C27.2497 37.4841 27.5037 31.6207 27.6883 25.9328C27.7064 25.3788 27.7164 24.8244 27.7189 24.2699C32.488 28.2458 37.3177 32.9855 41.9461 38.5947C37.972 42.8597 32.2999 45.5372 25.9909 45.5555ZM47.7778 23.7963C47.7778 21.5124 47.4241 19.3097 46.7679 17.2399C46.1097 17.3922 45.4542 17.5539 44.8016 17.7276C42.4987 18.3406 40.257 19.1188 37.9804 19.909L37.98 19.9091C37.128 20.2048 36.2713 20.5022 35.4045 20.7933C33.2584 21.5141 31.1045 22.2062 28.9491 22.8845C33.7195 26.8661 38.5424 31.5931 43.1673 37.1658C46.0575 33.4745 47.7778 28.8326 47.7778 23.7963ZM44.3252 15.9381C44.923 15.779 45.5241 15.6295 46.1277 15.4879C44.7464 12.1619 42.5608 9.24939 39.8106 6.993C36.5064 11.6183 32.8198 16.3448 29.0722 20.9039C30.9919 20.2969 32.9067 19.6786 34.815 19.0378C35.6423 18.76 36.4752 18.4708 37.3136 18.1798C39.6118 17.382 41.9508 16.5702 44.3252 15.9381ZM7.97803 11.3817C13.1367 13.8992 19.0241 17.4141 25.0901 22.1489C24.3801 22.3689 23.6696 22.5886 22.9587 22.8085L22.3227 23.0051C18.1436 24.2977 13.953 25.5998 9.79371 27.022C9.14038 27.2455 8.48478 27.4677 7.82788 27.6905L7.82636 27.6909C6.76967 28.0492 5.70949 28.4086 4.64939 28.7759C4.2731 27.1762 4.07413 25.5091 4.07413 23.7963C4.07413 19.1852 5.51623 14.9047 7.97803 11.3817ZM23.6095 24.5456C18.9514 30.0162 14.3754 35.0805 10.5068 39.2147C8.09091 36.8183 6.23554 33.8631 5.15174 30.5623C6.23796 30.1854 7.33012 29.8149 8.42576 29.4433C9.08038 29.2213 9.73629 28.9988 10.3929 28.7743C14.5227 27.3622 18.6888 26.0674 22.8699 24.7743L23.6095 24.5456Z" fill="url(#paint0_linear)"/>
</g>
<defs>
<linearGradient id="paint0_linear" x1="33.8633" y1="-38.5186" x2="33.8633" y2="56.7507" gradientUnits="userSpaceOnUse">
<stop stop-color="#FFE920"/>
<stop offset="1" stop-color="#EB874E"/>
</linearGradient>
</defs>
</svg>
