<svg width="21" height="21" viewBox="0 0 21 21" fill="none" xmlns="http://www.w3.org/2000/svg">
<circle cx="10.5" cy="10.5" r="10" stroke="#F3A734"/>
<g clip-path="url(#clip0)">
<path d="M12.5796 13.1107L13.174 12.1461L14.2468 11.7802L14.3657 10.6534L15.1728 9.85884L14.7891 8.79228L15.1728 7.72569L14.3657 6.93109L14.2469 5.80436L13.1741 5.43848L12.5796 4.47381L11.4552 4.60958L10.5 4L9.54482 4.60963L8.42042 4.47387L7.82595 5.43851L6.75314 5.80438L6.63429 6.93112L5.82715 7.72572L6.2109 8.7923L5.82715 9.85889L6.63427 10.6535L6.75312 11.7802L7.82592 12.1461L8.42039 13.1107L9.54482 12.975L10.5 13.5846L11.4552 12.975L12.5796 13.1107ZM7.2137 8.7923C7.2137 6.98025 8.68794 5.50602 10.5 5.50602C12.312 5.50602 13.7863 6.98025 13.7863 8.7923C13.7863 10.6044 12.312 12.0786 10.5 12.0786C8.68794 12.0786 7.2137 10.6044 7.2137 8.7923Z" fill="#F3A734"/>
<path d="M10.5002 6.26819C9.10837 6.26819 7.97607 7.40048 7.97607 8.79227C7.97607 10.1841 9.10837 11.3164 10.5002 11.3164C11.8919 11.3164 13.0242 10.1841 13.0242 8.79227C13.0242 7.40048 11.8919 6.26819 10.5002 6.26819Z" fill="#F3A734"/>
<path d="M9.36473 13.7644L8.02716 13.9259L7.32046 12.7791L7.08021 12.6971L6.04395 15.9361L7.90952 15.8335L9.3691 17L10.228 14.3154L9.36473 13.7644Z" fill="#F3A734"/>
<path d="M13.679 12.7791L12.9723 13.9259L11.6348 13.7644L10.7715 14.3154L11.6304 17L13.09 15.8335L14.9556 15.9361L13.9193 12.6971L13.679 12.7791Z" fill="#F3A734"/>
</g>
<defs>
<clipPath id="clip0">
<rect width="13" height="13" fill="white" transform="translate(4 4)"/>
</clipPath>
</defs>
</svg>
