<?xml version="1.0" encoding="utf-8"?>
<svg xmlns="http://www.w3.org/2000/svg" xmlns:xlink="http://www.w3.org/1999/xlink" style="margin: auto; background: rgba(0, 0, 0, 0) none repeat scroll 0% 0%; display: block; shape-rendering: auto;" width="251px" height="251px" viewBox="0 0 100 100" preserveAspectRatio="xMidYMid">
<g transform="rotate(0 50 50)">
  <rect x="46.5" y="26" rx="3.5" ry="4" width="7" height="8" fill="#f3a734">
    <animate attributeName="opacity" values="1;0" keyTimes="0;1" dur="0.46511627906976744s" begin="-0.43410852713178294s" repeatCount="indefinite"></animate>
  </rect>
</g><g transform="rotate(24 50 50)">
  <rect x="46.5" y="26" rx="3.5" ry="4" width="7" height="8" fill="#f3a734">
    <animate attributeName="opacity" values="1;0" keyTimes="0;1" dur="0.46511627906976744s" begin="-0.40310077519379844s" repeatCount="indefinite"></animate>
  </rect>
</g><g transform="rotate(48 50 50)">
  <rect x="46.5" y="26" rx="3.5" ry="4" width="7" height="8" fill="#f3a734">
    <animate attributeName="opacity" values="1;0" keyTimes="0;1" dur="0.46511627906976744s" begin="-0.37209302325581395s" repeatCount="indefinite"></animate>
  </rect>
</g><g transform="rotate(72 50 50)">
  <rect x="46.5" y="26" rx="3.5" ry="4" width="7" height="8" fill="#f3a734">
    <animate attributeName="opacity" values="1;0" keyTimes="0;1" dur="0.46511627906976744s" begin="-0.34108527131782945s" repeatCount="indefinite"></animate>
  </rect>
</g><g transform="rotate(96 50 50)">
  <rect x="46.5" y="26" rx="3.5" ry="4" width="7" height="8" fill="#f3a734">
    <animate attributeName="opacity" values="1;0" keyTimes="0;1" dur="0.46511627906976744s" begin="-0.31007751937984496s" repeatCount="indefinite"></animate>
  </rect>
</g><g transform="rotate(120 50 50)">
  <rect x="46.5" y="26" rx="3.5" ry="4" width="7" height="8" fill="#f3a734">
    <animate attributeName="opacity" values="1;0" keyTimes="0;1" dur="0.46511627906976744s" begin="-0.27906976744186046s" repeatCount="indefinite"></animate>
  </rect>
</g><g transform="rotate(144 50 50)">
  <rect x="46.5" y="26" rx="3.5" ry="4" width="7" height="8" fill="#f3a734">
    <animate attributeName="opacity" values="1;0" keyTimes="0;1" dur="0.46511627906976744s" begin="-0.24806201550387597s" repeatCount="indefinite"></animate>
  </rect>
</g><g transform="rotate(168 50 50)">
  <rect x="46.5" y="26" rx="3.5" ry="4" width="7" height="8" fill="#f3a734">
    <animate attributeName="opacity" values="1;0" keyTimes="0;1" dur="0.46511627906976744s" begin="-0.21705426356589147s" repeatCount="indefinite"></animate>
  </rect>
</g><g transform="rotate(192 50 50)">
  <rect x="46.5" y="26" rx="3.5" ry="4" width="7" height="8" fill="#f3a734">
    <animate attributeName="opacity" values="1;0" keyTimes="0;1" dur="0.46511627906976744s" begin="-0.18604651162790697s" repeatCount="indefinite"></animate>
  </rect>
</g><g transform="rotate(216 50 50)">
  <rect x="46.5" y="26" rx="3.5" ry="4" width="7" height="8" fill="#f3a734">
    <animate attributeName="opacity" values="1;0" keyTimes="0;1" dur="0.46511627906976744s" begin="-0.15503875968992248s" repeatCount="indefinite"></animate>
  </rect>
</g><g transform="rotate(240 50 50)">
  <rect x="46.5" y="26" rx="3.5" ry="4" width="7" height="8" fill="#f3a734">
    <animate attributeName="opacity" values="1;0" keyTimes="0;1" dur="0.46511627906976744s" begin="-0.12403100775193798s" repeatCount="indefinite"></animate>
  </rect>
</g><g transform="rotate(264 50 50)">
  <rect x="46.5" y="26" rx="3.5" ry="4" width="7" height="8" fill="#f3a734">
    <animate attributeName="opacity" values="1;0" keyTimes="0;1" dur="0.46511627906976744s" begin="-0.09302325581395349s" repeatCount="indefinite"></animate>
  </rect>
</g><g transform="rotate(288 50 50)">
  <rect x="46.5" y="26" rx="3.5" ry="4" width="7" height="8" fill="#f3a734">
    <animate attributeName="opacity" values="1;0" keyTimes="0;1" dur="0.46511627906976744s" begin="-0.06201550387596899s" repeatCount="indefinite"></animate>
  </rect>
</g><g transform="rotate(312 50 50)">
  <rect x="46.5" y="26" rx="3.5" ry="4" width="7" height="8" fill="#f3a734">
    <animate attributeName="opacity" values="1;0" keyTimes="0;1" dur="0.46511627906976744s" begin="-0.031007751937984496s" repeatCount="indefinite"></animate>
  </rect>
</g><g transform="rotate(336 50 50)">
  <rect x="46.5" y="26" rx="3.5" ry="4" width="7" height="8" fill="#f3a734">
    <animate attributeName="opacity" values="1;0" keyTimes="0;1" dur="0.46511627906976744s" begin="0s" repeatCount="indefinite"></animate>
  </rect>
</g>
<!-- [ldio] generated by https://loading.io/ --></svg>