<svg width="15" height="15" viewBox="0 0 15 15" fill="none" xmlns="http://www.w3.org/2000/svg">
<path d="M7.5 0C3.37248 0 0 3.35571 0 7.5C0 11.6275 3.35571 15 7.5 15C11.6443 15 15 11.6275 15 7.5C15 3.37248 11.6275 0 7.5 0ZM7.5 3.84228C8.77517 3.84228 9.83222 4.88255 9.83222 6.1745C9.83222 7.44966 8.79195 8.50671 7.5 8.50671C6.20805 8.50671 5.16779 7.44967 5.16779 6.15772C5.16779 4.88255 6.22483 3.84228 7.5 3.84228ZM7.5 13.4564C6.07383 13.4564 4.7651 12.953 3.74161 12.1141C4.81544 10.9396 6.12416 10.2852 7.5 10.2852C8.87584 10.2852 10.2013 10.9228 11.2584 12.1141C10.2349 12.953 8.92618 13.4564 7.5 13.4564Z" fill="#F3A734"/>
</svg>
