<svg width="18" height="13" viewBox="0 0 18 13" fill="none" xmlns="http://www.w3.org/2000/svg">
<path d="M18.1553 3.55309L18.1553 3.55309L15.447 0.844756C15.447 0.844756 15.447 0.844755 15.447 0.844754C14.9873 0.385081 14.242 0.385082 13.7823 0.844756C13.3226 1.30443 13.3226 2.04974 13.7823 2.50941L14.4812 3.20834H7.8438C7.19372 3.20834 6.66673 3.73533 6.66673 4.38542C6.66673 5.0355 7.19372 5.56249 7.8438 5.56249H14.4813L13.7823 6.26145C13.3226 6.72113 13.3226 7.46643 13.7823 7.92611C14.242 8.38578 14.9873 8.38578 15.447 7.92611L18.1553 5.21777L18.1553 5.21776C18.1564 5.21668 18.1574 5.21562 18.1585 5.21457C18.1854 5.18747 18.2102 5.15975 18.233 5.13191M18.1553 3.55309L18.233 5.13191M18.1553 3.55309C18.1836 3.58133 18.2094 3.61015 18.233 3.63898L18.1553 3.55309ZM18.233 5.13191C18.233 5.13197 18.2329 5.13202 18.2329 5.13208L17.8466 4.81461L18.2332 5.13174C18.2454 5.11681 18.2549 5.10383 18.2597 5.09734L18.2649 5.09012C18.2652 5.08977 18.2654 5.08952 18.2655 5.08937L18.233 5.13191ZM17.8021 4.86387L18.1558 5.21726M17.8021 4.86387L18.1936 5.17486L18.1876 5.18221C18.1813 5.18985 18.1704 5.20258 18.1558 5.21726M17.8021 4.86387L18.1556 5.21743C18.1557 5.21737 18.1557 5.21731 18.1558 5.21726M17.8021 4.86387L18.1558 5.21726M18.3331 3.78241L18.3331 3.78235C18.329 3.77551 18.3295 3.77631 18.3303 3.77761C18.3313 3.77935 18.3329 3.782 18.3248 3.76828C18.32 3.76017 18.3119 3.74683 18.3017 3.73155L18.3331 3.78241ZM18.3331 3.78241C18.3331 3.7824 18.3332 3.78259 18.3335 3.78308M18.3331 3.78241L18.3335 3.78308M18.4102 3.93437L18.4102 3.93437C18.4036 3.91843 18.3974 3.90515 18.3936 3.89718C18.3878 3.88509 18.3886 3.88678 18.3891 3.88788C18.3895 3.88864 18.3897 3.88912 18.3875 3.88444L18.3852 3.87948L18.3801 3.86853C18.376 3.85981 18.3694 3.84605 18.3609 3.83025L18.4102 3.93437ZM18.4102 3.93437L18.4107 3.93562M18.4102 3.93437L18.4107 3.93562M18.4107 3.93562C18.4172 3.95142 18.4222 3.96509 18.4252 3.97358M18.4107 3.93562L18.4252 3.97358M18.4775 4.15636L18.4774 4.15589C18.4738 4.13786 18.4701 4.1227 18.4677 4.11335L18.4648 4.10182L18.4639 4.09838C18.4626 4.09333 18.4627 4.09365 18.4628 4.09424C18.4631 4.09507 18.4634 4.09642 18.4604 4.08419C18.4583 4.07566 18.4546 4.06115 18.4495 4.0442L18.4775 4.15636ZM18.4775 4.15636C18.4811 4.17465 18.4835 4.19036 18.4849 4.20018M18.4775 4.15636L18.4849 4.20018M18.3335 3.78308L18.3348 3.78525M18.3335 3.78308L18.3348 3.78525M18.3348 3.78525L18.3402 3.79409M18.3348 3.78525L18.3402 3.79409M18.3402 3.79409C18.3447 3.80143 18.3524 3.81434 18.3608 3.83001L18.3402 3.79409ZM18.4252 3.97358L18.429 3.98414M18.4252 3.97358L18.429 3.98414M18.429 3.98414L18.4304 3.98834M18.429 3.98414L18.4304 3.98834M18.4304 3.98834L18.432 3.99274L18.436 4.00374C18.4392 4.01258 18.4442 4.02684 18.4494 4.04385L18.4304 3.98834ZM18.4849 4.20018L18.4866 4.21242M18.4849 4.20018L18.4866 4.21242M18.4866 4.21242L18.4873 4.21765L18.4866 4.21242ZM18.4878 4.22091L18.4874 4.218L18.4878 4.22091ZM18.4878 4.22091L18.4887 4.22611M18.4878 4.22091L18.4887 4.22611M18.4887 4.22611C18.4898 4.23366 18.4924 4.24996 18.4943 4.26959L18.4887 4.22611ZM18.4887 4.54448C18.49 4.5366 18.4924 4.52061 18.4943 4.50134L18.4887 4.54448ZM18.4887 4.54448L18.4873 4.55316M18.4887 4.54448L18.4873 4.55316M18.4873 4.55316C18.4873 4.55335 18.4873 4.55351 18.4873 4.55364M18.4873 4.55316L18.4873 4.55364M18.4873 4.55364C18.4871 4.55473 18.4872 4.55432 18.4873 4.55328L18.4873 4.55364ZM15.1884 5.56249L15.6884 5.06249H14.9813L15.1884 5.56249ZM18.3887 4.88387C18.3888 4.88363 18.3888 4.8835 18.387 4.88733L18.4493 4.72705C18.4442 4.74394 18.4393 4.75812 18.4361 4.76705L18.432 4.77825L18.4301 4.78326C18.4301 4.78335 18.4301 4.78344 18.4301 4.78353C18.4288 4.787 18.4288 4.78699 18.4288 4.78698C18.4289 4.78696 18.4289 4.78693 18.4253 4.79699C18.4224 4.80519 18.4174 4.81912 18.4107 4.83527C18.4037 4.85219 18.3971 4.86618 18.3933 4.87428C18.3883 4.8848 18.3885 4.88422 18.3887 4.88387ZM18.2333 3.63927C18.2455 3.65419 18.2551 3.66718 18.2598 3.67366L18.265 3.68091C18.2651 3.68105 18.2652 3.68118 18.2653 3.68129L18.2682 3.68507L18.2757 3.69505C18.2817 3.70302 18.2911 3.71576 18.3014 3.73121L18.2333 3.63927ZM18.4943 4.26967C18.5019 4.34667 18.5019 4.42426 18.4943 4.50126L18.4943 4.26967ZM18.4635 4.67381C18.4626 4.6775 18.4627 4.67719 18.4628 4.67665C18.463 4.67582 18.4634 4.67448 18.4604 4.68671C18.4583 4.69523 18.4546 4.70974 18.4495 4.7267L18.4635 4.67381ZM18.3018 5.03905C18.2912 5.05493 18.2816 5.06799 18.2757 5.07586C18.2651 5.08996 18.2674 5.08684 18.2689 5.08475L18.3018 5.03905Z" fill="#F3A734" stroke="white"/>
<path d="M5.26898 7.27133L5.96791 6.5724C6.42758 6.11272 6.42758 5.36742 5.96791 4.90774C5.50823 4.44807 4.76293 4.44807 4.30326 4.90774L1.59492 7.61607C1.59274 7.61826 1.5907 7.62034 1.58881 7.6223C1.56321 7.64827 1.53934 7.67497 1.51711 7.70206L1.51673 7.70253C1.50464 7.7173 1.49517 7.73018 1.49053 7.73654L1.48542 7.74358C1.48495 7.74423 1.48475 7.7445 1.48475 7.7445L1.48178 7.74841L1.47441 7.75818C1.46852 7.76605 1.45913 7.77878 1.4488 7.7942L1.4484 7.79479C1.43829 7.80994 1.43028 7.82319 1.4254 7.83139L1.41941 7.84154L1.41685 7.84589C1.41685 7.84588 1.41684 7.8459 1.4168 7.84596C1.41679 7.84598 1.41678 7.84599 1.41677 7.84601C1.41671 7.84612 1.41661 7.84629 1.41646 7.84654L1.41516 7.84866L1.40988 7.85737C1.40556 7.86453 1.39805 7.87713 1.38982 7.89243L5.26898 7.27133ZM5.26898 7.27133H11.9064C12.5565 7.27133 13.0835 7.79832 13.0835 8.4484C13.0835 9.09848 12.5565 9.62547 11.9064 9.62547H5.26898L5.96791 10.3244C6.42758 10.7841 6.42758 11.5294 5.96791 11.9891C5.50823 12.4487 4.76293 12.4487 4.30326 11.9891L1.59492 9.28073L1.59476 9.28056C1.59234 9.27814 1.59008 9.27583 1.588 9.27367C1.56302 9.24819 1.5394 9.22181 1.51711 9.19464M5.26898 7.27133L1.51711 9.19464M1.51711 9.19464C1.51724 9.1948 1.51737 9.19497 1.51751 9.19513L1.90358 8.87752L1.51711 9.19464ZM1.27278 8.67746L1.27292 8.67819C1.27649 8.69613 1.28022 8.71123 1.28258 8.72052L1.28553 8.73198L1.28653 8.73577C1.28744 8.73941 1.28742 8.73936 1.28738 8.73926C1.28733 8.73911 1.28724 8.73886 1.28986 8.74946C1.29194 8.75789 1.29563 8.7725 1.3008 8.78958L1.27278 8.67746ZM1.27278 8.67746C1.26918 8.65923 1.26682 8.64356 1.26545 8.63399C1.2633 8.61908 1.26364 8.62121 1.26387 8.62266C1.26404 8.62376 1.26416 8.62445 1.26306 8.61696L1.2629 8.6159M1.27278 8.67746L1.2629 8.6159M1.2629 8.6159L1.26244 8.61299M1.2629 8.6159L1.26244 8.61299M1.33978 7.99804L1.33957 7.99852C1.33291 8.01467 1.32787 8.02861 1.32495 8.03682C1.32134 8.04695 1.3214 8.04687 1.32143 8.04682C1.32146 8.04678 1.32147 8.04676 1.3202 8.0503C1.32017 8.05039 1.32014 8.05048 1.3201 8.05057L1.31828 8.05555L1.31421 8.06675C1.31098 8.07574 1.30596 8.09007 1.3008 8.10712M1.33978 7.99804L1.77941 8.25181M1.33978 7.99804C1.34656 7.98165 1.35293 7.96805 1.3568 7.9599M1.33978 7.99804L1.3568 7.9599M1.3008 8.10712L1.77941 8.25181M1.3008 8.10712C1.30083 8.10701 1.30087 8.10689 1.30091 8.10677L1.77941 8.25181M1.3008 8.10712C1.29566 8.12411 1.29198 8.13864 1.28988 8.14715C1.285 8.16687 1.28902 8.15096 1.28674 8.16007L1.28685 8.15967L1.77151 8.28257M1.77941 8.25181C1.77717 8.25918 1.77538 8.26663 1.77357 8.2741C1.77289 8.27692 1.77221 8.27975 1.77151 8.28257M1.77151 8.28257L1.28644 8.16129M1.77151 8.28257L1.28644 8.16129M1.28644 8.16129L1.28556 8.16462L1.2826 8.17609C1.28026 8.18527 1.27661 8.20008 1.27308 8.21774M1.28644 8.16129L1.25595 8.33248C1.25785 8.31321 1.2603 8.29722 1.26154 8.28934L1.26292 8.28065C1.26318 8.27898 1.26312 8.27936 1.26295 8.28052L1.26367 8.27526L1.26542 8.26275C1.26686 8.25272 1.2693 8.23656 1.27308 8.21774M1.27308 8.21774L1.76332 8.31605L1.27287 8.21878C1.27294 8.21843 1.27301 8.21809 1.27308 8.21774ZM1.26244 8.61299L1.26161 8.60778M1.26244 8.61299L1.26161 8.60778M1.26161 8.60778C1.26041 8.60016 1.25787 8.58377 1.25593 8.56401M1.26161 8.60778L1.25593 8.56401M1.25593 8.56401C1.24836 8.48705 1.24836 8.4095 1.25595 8.33254L1.25595 8.56423C1.25595 8.56416 1.25594 8.56408 1.25593 8.56401ZM1.3568 7.9599C1.36486 7.94294 1.36253 7.94791 1.36098 7.95122M1.3568 7.9599L1.36098 7.95122M1.36098 7.95122C1.35982 7.9537 1.35909 7.95526 1.3635 7.94594M1.36098 7.95122L1.3635 7.94594M1.3635 7.94594L1.3652 7.94227L1.37024 7.93145C1.37433 7.92278 1.38102 7.90882 1.38965 7.89276C1.38959 7.89287 1.38953 7.89298 1.38947 7.89308L1.3635 7.94594ZM1.41678 9.0507L1.41645 9.05016L1.41516 9.04804L1.40988 9.03934C1.4055 9.03207 1.39783 9.01922 1.38947 9.00362L1.38925 9.00321C1.38094 8.98766 1.37443 8.97411 1.37039 8.96553L1.36537 8.95479L1.3635 8.95077L1.36296 8.94962L1.3614 8.94638L1.35667 8.9365C1.35287 8.9285 1.3468 8.91551 1.3403 8.89995L1.33957 8.89818C1.33305 8.88238 1.32808 8.86871 1.32505 8.86021L1.32133 8.84965L1.32006 8.84601L1.31964 8.84484L1.31825 8.84106L1.31425 8.83006C1.31108 8.82121 1.30606 8.80695 1.30091 8.78993L1.41678 9.0507ZM1.59282 9.27856C1.59256 9.27829 1.5923 9.27803 1.59204 9.27777L1.59426 9.28L1.59282 9.27856Z" fill="#F3A734" stroke="white"/>
</svg>
