<svg width="22" height="15" viewBox="0 0 22 15" fill="none" xmlns="http://www.w3.org/2000/svg">
<path d="M18.0898 6.44531C17.734 6.44531 17.3959 6.50921 17.0684 6.59961L14.5903 1.28906H16.9116C17.4805 1.28906 17.7743 1.98223 17.3672 2.38928L16.9896 2.76693C16.7378 3.01868 16.7378 3.42659 16.9896 3.67834C17.2413 3.93009 17.6492 3.93009 17.901 3.67834L18.2786 3.30069C19.4917 2.08764 18.6264 0 16.9116 0H13.5781C13.3578 0 13.1526 0.112664 13.0343 0.298332C12.916 0.484 12.9009 0.717535 12.994 0.917039L14.3707 3.86719H7.77734V2.57812H9.71094C10.0672 2.57812 10.3555 2.28985 10.3555 1.93359C10.3555 1.57734 10.0672 1.28906 9.71094 1.28906H5.84375C5.4875 1.28906 5.19922 1.57734 5.19922 1.93359C5.19922 2.28985 5.4875 2.57812 5.84375 2.57812H6.48828V4.34509L5.19097 6.68027C4.78814 6.53761 4.36129 6.44531 3.91016 6.44531C1.77766 6.44531 0 8.18 0 10.3125C0 12.445 1.77766 14.1797 3.91016 14.1797C5.82196 14.1797 7.40317 12.7822 7.7122 10.957H8.5406C8.80756 11.7056 9.51629 12.2461 10.3555 12.2461C11.4217 12.2461 12.2891 11.3787 12.2891 10.3125C12.2891 9.90438 12.1603 9.52682 11.9438 9.21448L14.934 5.07414L15.8954 7.1344C14.8869 7.83294 14.2227 8.99534 14.2227 10.3125C14.2227 12.445 15.9573 14.1797 18.0898 14.1797C20.2223 14.1797 22 12.445 22 10.3125C22 8.18 20.2223 6.44531 18.0898 6.44531ZM5.68262 8.44916C6.02589 8.77585 6.27404 9.19566 6.39676 9.66797H5.00534L5.68262 8.44916ZM3.91016 12.8906C2.48828 12.8906 1.28906 11.7344 1.28906 10.3125C1.28906 8.89062 2.48828 7.73438 3.91016 7.73438C4.13394 7.73438 4.34736 7.77197 4.55452 7.82581L3.34684 9.99969C3.23606 10.1992 3.23855 10.4428 3.3544 10.6392C3.4702 10.8362 3.68169 10.9527 3.9102 10.9527H6.3968C6.10857 12.0616 5.10817 12.8906 3.91016 12.8906ZM8.54055 9.66797H7.71216C7.55086 8.71527 7.03953 7.88984 6.31611 7.30903L7.13303 5.83894L8.91129 9.03981C8.75007 9.22251 8.62404 9.434 8.54055 9.66797ZM10.8947 8.46489C10.7224 8.4144 10.5439 8.37891 10.3555 8.37891C10.2462 8.37891 10.1407 8.3936 10.0363 8.41118L8.22809 5.15625H13.2842L10.8947 8.46489ZM18.0898 12.8906C16.668 12.8906 15.5117 11.7344 15.5117 10.3125C15.5117 9.51401 15.8841 8.80808 16.4557 8.33491L17.5057 10.585C17.6552 10.9046 18.0365 11.0479 18.3624 10.8966C18.6853 10.7461 18.8244 10.3622 18.674 10.0399L17.6202 7.78186C17.7729 7.75354 17.9291 7.73433 18.0899 7.73433C19.5118 7.73433 20.711 8.89058 20.711 10.3125C20.711 11.7343 19.5117 12.8906 18.0898 12.8906Z" fill="#C4C4C4"/>
</svg>
