<svg width="21" height="21" viewBox="0 0 21 21" fill="none" xmlns="http://www.w3.org/2000/svg">
<circle cx="10.5" cy="10.5" r="10" stroke="#F3A734"/>
<path d="M11 5C8.24289 5 6 7.24289 6 10C6 12.7571 8.24289 15 11 15C13.7571 15 16 12.7571 16 10C16 7.24289 13.7571 5 11 5ZM13.3779 12.5862C13.2967 12.6675 13.19 12.7084 13.0834 12.7084C12.9767 12.7084 12.87 12.6675 12.7888 12.5862L10.7054 10.5029C10.6271 10.425 10.5834 10.3191 10.5834 10.2084V7.5C10.5834 7.26959 10.77 7.08336 11 7.08336C11.23 7.08336 11.4166 7.26959 11.4166 7.5V10.0359L13.3779 11.9971C13.5408 12.16 13.5408 12.4233 13.3779 12.5862Z" fill="#F3A734"/>
</svg>
