<svg width="50" height="50" viewBox="0 0 50 50" fill="none" xmlns="http://www.w3.org/2000/svg">
<path d="M35.4166 6.24992H43.75C44.3025 6.24992 44.8324 6.46941 45.2231 6.86011C45.6138 7.25081 45.8333 7.78072 45.8333 8.33325V41.6666C45.8333 42.2191 45.6138 42.749 45.2231 43.1397C44.8324 43.5304 44.3025 43.7499 43.75 43.7499H6.24996C5.69743 43.7499 5.16752 43.5304 4.77682 43.1397C4.38612 42.749 4.16663 42.2191 4.16663 41.6666V8.33325C4.16663 7.78072 4.38612 7.25081 4.77682 6.86011C5.16752 6.46941 5.69743 6.24992 6.24996 6.24992H14.5833V2.08325H18.75V6.24992H31.25V2.08325H35.4166V6.24992ZM8.33329 18.7499V39.5833H41.6666V18.7499H8.33329ZM12.5 27.0833H22.9166V35.4166H12.5V27.0833Z" fill="#F3A734"/>
</svg>
