<svg width="50" height="50" viewBox="0 0 50 50" fill="none" xmlns="http://www.w3.org/2000/svg">
<path d="M25 4.16669C36.5062 4.16669 45.8333 13.4938 45.8333 25C45.8333 36.5063 36.5062 45.8334 25 45.8334C13.4937 45.8334 4.16663 36.5063 4.16663 25C4.16663 13.4938 13.4937 4.16669 25 4.16669ZM25 14.5834C23.9312 14.5834 22.902 14.7438 21.9312 15.0417C22.6998 15.388 23.3728 15.9156 23.8924 16.5793C24.4121 17.243 24.763 18.023 24.9148 18.8521C25.0666 19.6813 25.0149 20.5349 24.7642 21.3397C24.5134 22.1445 24.071 22.8764 23.475 23.4726C22.8791 24.0687 22.1473 24.5113 21.3426 24.7623C20.5379 25.0133 19.6843 25.0653 18.8551 24.9137C18.0258 24.7621 17.2458 24.4115 16.5819 23.892C15.9181 23.3726 15.3902 22.6997 15.0437 21.9313C14.3977 24.0269 14.4295 26.273 15.1346 28.3495C15.8398 30.426 17.1823 32.227 18.9709 33.4959C20.7595 34.7648 22.903 35.4368 25.0958 35.4162C27.2887 35.3957 29.4192 34.6835 31.1836 33.3813C32.9481 32.0791 34.2566 30.2532 34.9227 28.1638C35.5887 26.0744 35.5784 23.8282 34.8931 21.745C34.2079 19.6618 32.8826 17.8481 31.1062 16.5622C29.3299 15.2762 27.1929 14.5837 25 14.5834Z" fill="#F3A734"/>
</svg>
