<svg width="49" height="49" viewBox="0 0 49 49" fill="none" xmlns="http://www.w3.org/2000/svg">
<path d="M30.6251 4.08333C32.0589 4.08316 33.4675 4.46049 34.7093 5.17738C35.951 5.89428 36.9821 6.92546 37.6989 8.16726C38.4157 9.40905 38.793 10.8177 38.7927 12.2515C38.7924 13.6853 38.4147 15.0938 37.6974 16.3354L46.9584 16.3333V20.4167H42.8751V40.8333C42.8751 41.3748 42.66 41.8941 42.2771 42.277C41.8942 42.6599 41.3749 42.875 40.8334 42.875H8.16675C7.62526 42.875 7.10596 42.6599 6.72307 42.277C6.34018 41.8941 6.12508 41.3748 6.12508 40.8333V20.4167H2.04175V16.3333L11.3027 16.3354C10.2898 14.5813 9.96482 12.5135 10.3909 10.5333C10.817 8.55313 11.9637 6.80194 13.6085 5.61979C15.2532 4.43763 17.2786 3.90886 19.2913 4.13616C21.304 4.36346 23.1604 5.3306 24.5001 6.84978C25.2649 5.97877 26.207 5.28132 27.2634 4.80419C28.3198 4.32706 29.466 4.08128 30.6251 4.08333ZM26.5417 20.4167H22.4584V40.8333H26.5417V20.4167ZM18.3751 8.16666C17.3155 8.16192 16.2955 8.56925 15.5307 9.3026C14.7659 10.036 14.3161 11.0379 14.2764 12.0967C14.2366 13.1556 14.61 14.1884 15.3177 14.9771C16.0253 15.7657 17.0119 16.2484 18.0688 16.3231L18.3751 16.3333H22.4584V12.25C22.4585 11.2742 22.1091 10.3307 21.4735 9.59023C20.8379 8.8498 19.9582 8.36145 18.9937 8.21362L18.6793 8.17687L18.3751 8.16666ZM30.6251 8.16666C29.5949 8.16633 28.6027 8.55541 27.8473 9.25588C27.0919 9.95636 26.6292 10.9165 26.552 11.9437L26.5417 12.25V16.3333H30.6251C31.6553 16.3337 32.6475 15.9446 33.4029 15.2441C34.1582 14.5436 34.6209 13.5835 34.6982 12.5562L34.7084 12.25C34.7084 11.167 34.2782 10.1284 33.5124 9.36264C32.7467 8.59687 31.708 8.16666 30.6251 8.16666Z" fill="#F3A734"/>
</svg>
