<svg width="50" height="50" viewBox="0 0 50 50" fill="none" xmlns="http://www.w3.org/2000/svg">
<path d="M11.4584 43.7499C10.2272 43.7499 9.00814 43.5074 7.87072 43.0363C6.73329 42.5652 5.6998 41.8746 4.82925 41.004C3.9587 40.1335 3.26814 39.1 2.797 37.9626C2.32587 36.8252 2.08337 35.6061 2.08337 34.3749C2.08337 33.1438 2.32587 31.9247 2.797 30.7873C3.26814 29.6498 3.9587 28.6163 4.82925 27.7458C5.6998 26.8752 6.73329 26.1847 7.87072 25.7135C9.00814 25.2424 10.2272 24.9999 11.4584 24.9999C13.9448 24.9999 16.3293 25.9876 18.0875 27.7458C19.8457 29.5039 20.8334 31.8885 20.8334 34.3749C20.8334 36.8613 19.8457 39.2459 18.0875 41.004C16.3293 42.7622 13.9448 43.7499 11.4584 43.7499ZM11.4584 37.4999C12.2872 37.4999 13.082 37.1707 13.6681 36.5846C14.2541 35.9986 14.5834 35.2037 14.5834 34.3749C14.5834 33.5461 14.2541 32.7513 13.6681 32.1652C13.082 31.5792 12.2872 31.2499 11.4584 31.2499C10.6296 31.2499 9.83472 31.5792 9.24866 32.1652C8.66261 32.7513 8.33337 33.5461 8.33337 34.3749C8.33337 35.2037 8.66261 35.9986 9.24866 36.5846C9.83472 37.1707 10.6296 37.4999 11.4584 37.4999ZM38.5417 43.7499C37.3106 43.7499 36.0915 43.5074 34.954 43.0363C33.8166 42.5652 32.7831 41.8746 31.9126 41.004C31.042 40.1335 30.3515 39.1 29.8803 37.9626C29.4092 36.8252 29.1667 35.6061 29.1667 34.3749C29.1667 33.1438 29.4092 31.9247 29.8803 30.7873C30.3515 29.6498 31.042 28.6163 31.9126 27.7458C32.7831 26.8752 33.8166 26.1847 34.954 25.7135C36.0915 25.2424 37.3106 24.9999 38.5417 24.9999C41.0281 24.9999 43.4127 25.9876 45.1708 27.7458C46.929 29.5039 47.9167 31.8885 47.9167 34.3749C47.9167 36.8613 46.929 39.2459 45.1708 41.004C43.4127 42.7622 41.0281 43.7499 38.5417 43.7499ZM38.5417 37.4999C39.3705 37.4999 40.1654 37.1707 40.7514 36.5846C41.3375 35.9986 41.6667 35.2037 41.6667 34.3749C41.6667 33.5461 41.3375 32.7513 40.7514 32.1652C40.1654 31.5792 39.3705 31.2499 38.5417 31.2499C37.7129 31.2499 36.918 31.5792 36.332 32.1652C35.7459 32.7513 35.4167 33.5461 35.4167 34.3749C35.4167 35.2037 35.7459 35.9986 36.332 36.5846C36.918 37.1707 37.7129 37.4999 38.5417 37.4999ZM24.023 20.4103L27.0834 24.9999V37.4999H22.9167V27.0833L17.2521 22.3624C16.748 22.016 16.3264 21.5629 16.0172 21.0352C15.7079 20.5075 15.5186 19.9182 15.4627 19.3091C15.4069 18.7 15.4858 18.0861 15.6938 17.511C15.9019 16.9358 16.2341 16.4135 16.6667 15.9812L22.5584 10.0895C22.9453 9.70241 23.4047 9.39535 23.9103 9.18585C24.416 8.97635 24.9579 8.86852 25.5052 8.86852C26.0526 8.86852 26.5945 8.97635 27.1002 9.18585C27.6058 9.39535 28.0652 9.70241 28.4521 10.0895L31.398 13.0353C33.6043 15.2495 36.4662 16.6926 39.5584 17.1499L39.5375 21.3478C35.342 20.8648 31.4342 18.9737 28.4521 15.9833L24.0209 20.4103H24.023ZM33.3334 10.4166C32.2283 10.4166 31.1685 9.9776 30.3871 9.1962C29.6057 8.4148 29.1667 7.35499 29.1667 6.24992C29.1667 5.14485 29.6057 4.08504 30.3871 3.30364C31.1685 2.52224 32.2283 2.08325 33.3334 2.08325C34.4384 2.08325 35.4982 2.52224 36.2797 3.30364C37.0611 4.08504 37.5 5.14485 37.5 6.24992C37.5 7.35499 37.0611 8.4148 36.2797 9.1962C35.4982 9.9776 34.4384 10.4166 33.3334 10.4166Z" fill="#F3A734"/>
</svg>
