<svg width="50" height="50" viewBox="0 0 50 50" fill="none" xmlns="http://www.w3.org/2000/svg">
<path d="M25 45.8334C13.4937 45.8334 4.16663 36.5063 4.16663 25.0001C4.16663 13.4938 13.4937 4.16675 25 4.16675C36.5062 4.16675 45.8333 13.4938 45.8333 25.0001C45.8333 36.5063 36.5062 45.8334 25 45.8334ZM14.5833 25.0001C14.5833 27.7628 15.6808 30.4123 17.6343 32.3658C19.5878 34.3193 22.2373 35.4167 25 35.4167C27.7626 35.4167 30.4122 34.3193 32.3657 32.3658C34.3192 30.4123 35.4166 27.7628 35.4166 25.0001H31.25C31.25 26.6577 30.5915 28.2474 29.4194 29.4195C28.2473 30.5916 26.6576 31.2501 25 31.2501C23.3424 31.2501 21.7526 30.5916 20.5805 29.4195C19.4084 28.2474 18.75 26.6577 18.75 25.0001H14.5833Z" fill="#F3A734"/>
</svg>
